# xmcd CD database file
#
# Track frame offsets:
#	150
#	26221
#	44982
#	67410
#	99687
#	117020
#	132779
#	148393
#	168155
#	186783
#	202362
#	222688
#	240087
#	262845
#	278483
#	293545
#	309073
#	326261
#
# Disc length: 4439 seconds
#
# Revision: 0
# Processed by: cddbd v1.5.1PL0 Copyright (c) Steve Scherf et al.
# Submitted via: CDex 1.51
#
DISCID=15115512
DTITLE=College of Wooster Jazz Ensemble - Live with Harold Jones
DYEAR=2004
DGENRE=Jazz
TTITLE0=Mercy, Mercy, Mercy
TTITLE1=Shoehorn Shuffle
TTITLE2=Chelsea Bridge
TTITLE3=Moanin'
TTITLE4=Don't Be That Way
TTITLE5=Daydream
TTITLE6=Without a Song
TTITLE7=Goodbye Pork Pie Hat
TTITLE8=Impressions
TTITLE9=Basie Straight Ahead
TTITLE10=Shiny Stockings
TTITLE11=It's Oh, So Nice
TTITLE12=Corner Pocket
TTITLE13=April in Paris
TTITLE14=Pensive Miss
TTITLE15=Cute
TTITLE16=Jumpin' at the Woodside
TTITLE17=One O'Clock Jump
EXTD=YEAR: 2004
EXTT0=
EXTT1=
EXTT2=
EXTT3=
EXTT4=
EXTT5=
EXTT6=
EXTT7=
EXTT8=
EXTT9=
EXTT10=
EXTT11=
EXTT12=
EXTT13=
EXTT14=
EXTT15=
EXTT16=
EXTT17=
PLAYORDER=
